<svg xmlns="http://www.w3.org/2000/svg" xmlns:xlink="http://www.w3.org/1999/xlink" version="1.1" x="0px" y="0px" viewBox="0 0 48 60" enable-background="new 0 0 48 48" xml:space="preserve"><g><path fill="#000000" d="M26.8,47.4h-6.6c-2.7,0-5-2.2-5-5V14h16.6v28.4C31.8,45.2,29.6,47.4,26.8,47.4z M17.2,16v26.4   c0,1.6,1.3,3,3,3h6.6c1.6,0,3-1.3,3-3V16H17.2z"/><path fill="#000000" d="M16.2,22c-0.2,0-0.4,0-0.6,0c-3.8-0.4-6.7-3.6-6.7-7.6c0-4.2,3.3-7.7,7.3-7.7c3.8,0,7,3,7.3,7   c0,0.2,0,0.5,0,0.7h-2c0-0.2,0-0.4,0-0.5c-0.3-2.9-2.5-5.1-5.3-5.1c-2.9,0-5.3,2.5-5.3,5.7c0,2.9,2.1,5.4,4.9,5.6   c0.2,0,0.3,0,0.5,0V22z"/><polygon fill="#000000" points="23.5,34 21.6,33.7 26,9 38,0.6 39.1,2.2 27.9,10.2  "/></g><text x="0" y="63" fill="#000000" font-size="5px" font-weight="bold" font-family="'Helvetica Neue', Helvetica, Arial-Unicode, Arial, Sans-serif">Created by Creative Stall</text><text x="0" y="68" fill="#000000" font-size="5px" font-weight="bold" font-family="'Helvetica Neue', Helvetica, Arial-Unicode, Arial, Sans-serif">from the Noun Project</text></svg>