<svg xmlns="http://www.w3.org/2000/svg" xmlns:xlink="http://www.w3.org/1999/xlink" version="1.1" x="0px" y="0px" viewBox="0 0 100 125" enable-background="new 0 0 100 100" xml:space="preserve"><g><path d="M76.341,71.504H24.153c-10.236,0-13.535-5.233-14.5-9.622c-0.099-0.452,0.011-0.925,0.301-1.286   c0.29-0.36,0.728-0.569,1.189-0.569c0.001,0,0.001,0,0.001,0l78.188,0.062c0.464,0,0.902,0.211,1.191,0.574   c0.29,0.363,0.398,0.837,0.297,1.287C89.841,66.31,86.532,71.504,76.341,71.504z M13.227,63.082   c1.563,3.608,5.159,5.368,10.926,5.368h52.188c5.733,0,9.32-1.739,10.897-5.31L13.227,63.082z"/></g><g><path d="M89.333,50.549h-0.002l-78.188-0.092c-0.445,0-0.867-0.195-1.158-0.532c-0.289-0.338-0.417-0.786-0.349-1.226   c1.361-8.881,6.376-13.575,14.502-13.575h9.507c0.843,0,1.527,0.683,1.527,1.527v3.681c0,0.527,0.287,0.803,0.387,0.803   c0.1,0,0.388-0.276,0.388-0.803v-3.681c0-0.844,0.684-1.527,1.526-1.527h11.053c0.843,0,1.527,0.683,1.527,1.527v3.681   c0,0.519,0.292,0.803,0.388,0.803c0.1,0,0.387-0.276,0.387-0.803v-3.681c0-0.844,0.684-1.527,1.526-1.527h10.649   c0.844,0,1.526,0.683,1.526,1.527v3.681c0,0.527,0.287,0.803,0.388,0.803c0.1,0,0.388-0.276,0.388-0.803v-3.681   c0-0.844,0.683-1.527,1.526-1.527h9.494c8.16,0,13.179,4.728,14.518,13.673c0.064,0.44-0.065,0.886-0.355,1.223   C90.198,50.356,89.777,50.549,89.333,50.549z M12.989,47.406l74.507,0.089c-1.422-6.265-5.09-9.318-11.17-9.318h-7.968v2.155   c0,2.126-1.543,3.856-3.44,3.856s-3.44-1.73-3.44-3.856v-2.155h-7.596v2.155c0,2.126-1.544,3.856-3.441,3.856S47,42.458,47,40.332   v-2.155h-8v2.155c0,2.126-1.544,3.856-3.441,3.856s-3.441-1.73-3.441-3.856v-2.155h-7.98   C18.089,38.177,14.428,41.201,12.989,47.406z"/></g><g><path d="M81.271,58.415c-2.544,0-3.912-0.773-5.011-1.396c-0.854-0.482-1.417-0.801-2.757-0.801c-1.339,0-1.901,0.318-2.755,0.801   c-1.099,0.622-2.465,1.396-5.01,1.396c-2.542,0-3.909-0.773-5.007-1.397c-0.851-0.48-1.413-0.799-2.748-0.799   c-1.338,0-1.9,0.318-2.753,0.801c-1.099,0.622-2.466,1.396-5.009,1.396c-2.542,0-3.91-0.773-5.007-1.396   c-0.852-0.482-1.416-0.801-2.752-0.801c-1.335,0-1.898,0.318-2.75,0.799c-1.098,0.624-2.464,1.397-5.008,1.397   s-3.909-0.773-5.007-1.397c-0.852-0.48-1.415-0.799-2.75-0.799c-1.335,0-1.897,0.318-2.749,0.799   c-1.099,0.624-2.465,1.397-5.008,1.397c-2.542,0-3.908-0.775-5.005-1.397c-0.85-0.48-1.413-0.799-2.745-0.799   c-1.265,0-2.29-1.025-2.29-2.291c0-1.263,1.025-2.289,2.29-2.289c2.541,0,3.907,0.772,5.004,1.397   c0.851,0.48,1.413,0.799,2.747,0.799c1.336,0,1.899-0.318,2.751-0.802c1.098-0.622,2.463-1.395,5.006-1.395   c2.543,0,3.909,0.772,5.008,1.397c0.852,0.48,1.415,0.799,2.75,0.799c1.336,0,1.899-0.318,2.751-0.799   c1.098-0.625,2.464-1.397,5.007-1.397c2.544,0,3.911,0.772,5.009,1.397c0.852,0.48,1.415,0.799,2.75,0.799   c1.337,0,1.9-0.318,2.752-0.802c1.099-0.622,2.466-1.395,5.01-1.395c2.541,0,3.908,0.772,5.006,1.397   c0.852,0.48,1.413,0.799,2.749,0.799c1.337,0,1.9-0.318,2.753-0.802c1.1-0.622,2.466-1.395,5.012-1.395   c2.544,0,3.912,0.772,5.012,1.395c0.854,0.483,1.417,0.802,2.756,0.802c1.338,0,1.902-0.318,2.757-0.802   c1.099-0.622,2.467-1.395,5.012-1.395c1.264,0,2.29,1.026,2.29,2.289c0,1.266-1.026,2.291-2.29,2.291   c-1.34,0-1.904,0.318-2.758,0.801C85.183,57.642,83.815,58.415,81.271,58.415z"/></g><text x="0" y="115" fill="#000000" font-size="5px" font-weight="bold" font-family="'Helvetica Neue', Helvetica, Arial-Unicode, Arial, Sans-serif">Created by Alex Chocron</text><text x="0" y="120" fill="#000000" font-size="5px" font-weight="bold" font-family="'Helvetica Neue', Helvetica, Arial-Unicode, Arial, Sans-serif">from the Noun Project</text></svg>