<svg xmlns="http://www.w3.org/2000/svg" xmlns:xlink="http://www.w3.org/1999/xlink" version="1.1" x="0px" y="0px" viewBox="0 0 95 118.75" enable-background="new 0 0 95 95" xml:space="preserve"><path d="M71.197,42.281c-3.32-7.714-10.584-13.327-19.256-14.298c0.258-0.451,0.406-0.97,0.406-1.526  c0-1.707-1.385-3.091-3.092-3.091c-1.708,0-3.092,1.384-3.092,3.091c0,0.556,0.148,1.075,0.405,1.526  C36.49,29.111,28.308,36.51,26.016,46.19c-0.196,0.065-2.557-0.684-3.206-1.307c-0.976-0.935-1.766-2.085-2.529-3.216  c-1.696-2.515-3.248-5.13-5.008-7.597c-1.229-1.724-1.577-1.649-3.58-0.919c-1.436,0.524-3.775,0.913-5.319,1.365  c0.441-0.129,2.94,3.353,3.277,3.795c1.058,1.388,2.01,2.85,2.816,4.398c1.672,3.216,2.538,6.761,3.779,10.149  c0.729,1.988,1.58,3.945,2.737,5.725c1.943,2.987,4.879,5.282,8.601,5.056c0.352-0.023,0.681-0.027,0.986,0.008  c2.413,4.17,6.048,7.547,10.42,9.629H59.52c3.957-1.887,7.311-4.834,9.701-8.469h0.633c7.832,0,14.555-4.822,17.365-11.65  c0.904-2.113,1.408-4.437,1.408-6.875v-0.246v-2.257v-1.498H71.197z M83.564,47.287c-0.576,6.371-5.51,11.5-11.789,12.38  c0.881-2.488,1.361-5.166,1.361-7.957c0-1.512-0.146-2.989-0.418-4.423H83.564z"/><text x="0" y="110" fill="#000000" font-size="5px" font-weight="bold" font-family="'Helvetica Neue', Helvetica, Arial-Unicode, Arial, Sans-serif">Created by Lilit Kalachyan</text><text x="0" y="115" fill="#000000" font-size="5px" font-weight="bold" font-family="'Helvetica Neue', Helvetica, Arial-Unicode, Arial, Sans-serif">from the Noun Project</text></svg>